<svg class="svg-icon" style="width: 1em;height: 1em;vertical-align: middle;fill: currentColor;overflow: hidden;" viewBox="0 0 1024 1024" version="1.1" xmlns="http://www.w3.org/2000/svg"><path d="M512 1024c-56.096-89.344-97.184-137.728-123.296-145.184C201.216 825.248 64 652.672 64 448 64 200.576 264.576 0 512 0s448 200.576 448 448c0 203.168-135.232 374.72-320.608 429.632-26.88 7.968-69.376 56.768-127.392 146.368z m236.288-440.48a90.08 90.08 0 0 0-24.832-17.056l-30.464-14.464a371.328 371.328 0 0 1-34.336-18.88 171.456 171.456 0 0 1-35.776-30.4c-8.032-12.384-16.896-26.24-26.56-41.536-9.696-15.328-19.968-31.648-30.848-48.96 8.032-9.856 15.84-19.744 23.392-29.632l22.656-29.664c24.576-32.64 42.656-63.392 54.208-92.32 11.584-28.896 19.136-54.496 22.688-76.736 3.52-22.24 4.256-40.384 2.112-54.496-2.112-14.08-4.608-22.592-7.424-25.6a27.232 27.232 0 0 0-20.576-7.744c-8 0.256-13.664 3.072-16.96 8.512-4.256 7.936-10.272 19.424-18.08 34.496a2600.896 2600.896 0 0 1-59.904 109.728c-11.776 20.48-24.064 40.416-36.8 59.712-2.816 3.968-5.536 8.032-8.16 12.256a215.296 215.296 0 0 1-8.128 12.224c-13.696-21.248-27.392-42.752-41.088-64.512-13.696-21.76-26.944-42.624-39.68-62.656-12.736-20-24.544-38.656-35.424-55.968-10.88-17.28-20.544-32.64-29.056-45.952-3.744-5.952-8.704-8.288-14.88-7.072a35.2 35.2 0 0 0-14.176 5.536c-6.144 8.416-9.12 21.376-8.864 38.912 0.224 17.568 3.424 37.44 9.568 59.68 6.144 22.272 14.88 45.76 26.24 70.464 11.552 25.152 25.6 49.024 41.76 71.2 7.488 10.688 15.904 20.64 25.152 29.664 8.736 8.384 19.264 19.264 31.552 32.64a1637.44 1637.44 0 0 0-20.576 29.248c-6.592 9.664-13.216 18.912-19.84 27.84-3.136 3.2-5.76 6.976-7.776 11.104l-0.704 0.736a147.616 147.616 0 0 0-5.312 7.392 147.648 147.648 0 0 1-5.312 7.424c-8.64 10.496-18.816 19.488-30.112 26.656a987.52 987.52 0 0 1-36.48 22.24c-12.8 7.424-25.632 15.456-38.624 24.096a205.248 205.248 0 0 0-37.216 32.256 117.952 117.952 0 0 0-29.024 39.296 121.6 121.6 0 0 0-1.76 95.264 117.28 117.28 0 0 0 59.52 62.272c13.76 6.24 28.576 9.408 43.552 9.28a104.96 104.96 0 0 0 64.448-21.12 115.456 115.456 0 0 0 40.384-54.496c7.584-17.28 12.672-32.096 15.264-44.48 2.592-12.32 3.776-23.072 3.52-32.224a90.56 90.56 0 0 0-3.52-24.096 387.456 387.456 0 0 1-5.664-20.384 84.48 84.48 0 0 1-2.496-20.416c0-6.88 2.144-15.04 6.4-24.448 2.24-2.784 4.224-5.76 5.984-8.896 1.76-3.136 3.776-6.112 5.984-8.928 8.992-12.352 17.76-24.192 26.24-35.584 8.512-11.36 17.248-22.72 26.24-34.08 0.96 1.536 2.048 3.008 3.2 4.416 1.152 1.504 2.464 3.232 3.872 5.216 8 11.84 15.36 23.584 21.952 35.2 6.624 11.616 12.544 22.4 17.728 32.256 2.848 12.864 4.032 27.552 3.52 44.128l-1.376 50.4c-0.512 16.48 0.192 32.96 2.112 49.28 1.92 15.84 6.624 29.184 14.176 40.064 2.112 2.144 4 4.512 5.664 7.04 1.44 2.272 3.104 4.384 4.96 6.304 10.016 15.904 23.488 29.12 39.328 38.528 16.288 9.92 34.368 14.848 54.208 14.848 14.976 0.128 29.824-3.04 43.552-9.28a116 116 0 0 0 59.52-61.536c5.952-14.4 8.96-29.92 8.864-45.6 0-20.768-4.736-39.776-14.176-57.088a115.328 115.328 0 0 0-37.536-41.504zM335.2 736.224c-15.104 0-28.096-5.664-38.944-17.024a56.96 56.96 0 0 1-16.32-40.8c0-15.808 5.44-29.408 16.32-40.768 10.88-11.36 23.84-17.056 38.944-17.056 15.136 0 28 5.696 38.624 17.056 10.624 11.36 15.936 24.96 15.936 40.768a57.6 57.6 0 0 1-15.936 40.8 50.944 50.944 0 0 1-38.624 17.024z m352.128 0a53.792 53.792 0 0 1-21.6-4.416 53.728 53.728 0 0 1-17.696-12.224 57.6 57.6 0 0 1-15.968-40.448c0-15.808 5.44-29.408 16.32-40.768 10.88-11.36 23.84-17.056 38.944-17.056 15.136 0 28 5.696 38.624 17.056 10.624 11.36 15.936 24.96 15.936 40.768 0 15.84-5.312 29.312-15.936 40.416a51.456 51.456 0 0 1-38.624 16.672z"  /></svg>