<svg class="svg-icon" style="width: 1em; height: 1em;vertical-align: middle;fill: currentColor;overflow: hidden;" viewBox="0 0 1024 1024" version="1.1" xmlns="http://www.w3.org/2000/svg"><path d="M967.111111 369.777778h-113.777778l-28.444444-153.6C807.822222 142.222222 731.022222 142.222222 688.355556 142.222222H335.644444C292.977778 142.222222 216.177778 142.222222 199.111111 216.177778L170.666667 369.777778H56.888889c-31.288889 0-56.888889 25.6-56.888889 56.888889s25.6 56.888889 56.888889 56.888889h51.2c-14.222222 14.222222-22.755556 34.133333-22.755556 56.888888v227.555556c0 45.511111 36.977778 85.333333 85.333334 85.333333h28.444444v71.111111C199.111111 964.266667 230.4 995.555556 270.222222 995.555556s71.111111-31.288889 71.111111-71.111112V853.333333h341.333334v71.111111c0 39.822222 31.288889 71.111111 71.111111 71.111112s71.111111-31.288889 71.111111-71.111112V853.333333h28.444444c48.355556 0 85.333333-39.822222 85.333334-85.333333v-227.555556c0-22.755556-8.533333-42.666667-22.755556-56.888888H967.111111c31.288889 0 56.888889-25.6 56.888889-56.888889s-25.6-56.888889-56.888889-56.888889z m-250.311111-113.777778l39.822222 199.111111H267.377778l39.822222-199.111111h409.6zM256 654.222222c-31.288889 0-56.888889-25.6-56.888889-56.888889s25.6-56.888889 56.888889-56.888889 56.888889 25.6 56.888889 56.888889-25.6 56.888889-56.888889 56.888889z m512 0c-31.288889 0-56.888889-25.6-56.888889-56.888889s25.6-56.888889 56.888889-56.888889 56.888889 25.6 56.888889 56.888889-25.6 56.888889-56.888889 56.888889z" fill="" /></svg>