<svg class="svg-icon" style="width: 1em;height: 1em;vertical-align: middle;fill: currentColor;overflow: hidden;" viewBox="0 0 1024 1024" version="1.1" xmlns="http://www.w3.org/2000/svg"><path d="M512 1024c-56.096-89.344-97.184-137.728-123.296-145.184C201.216 825.248 64 652.672 64 448 64 200.576 264.576 0 512 0s448 200.576 448 448c0 203.168-135.232 374.72-320.608 429.632-26.88 7.968-69.376 56.768-127.392 146.368z m64.576-631.936V277.856a31.84 31.84 0 0 0-32.256-31.68h-64.576a31.84 31.84 0 0 0-32.288 31.68v114.208H331.68a31.84 31.84 0 0 0-32.256 31.68v63.36a31.84 31.84 0 0 0 32.256 31.616h115.84v114.24a31.84 31.84 0 0 0 32.256 31.68h64.608a31.84 31.84 0 0 0 32.256-31.424V518.72h115.84a31.84 31.84 0 0 0 32.256-31.648v-63.36c-0.32-17.6-14.72-31.68-32.32-31.648h-115.84z m271.456-61.728l-0.8-0.992a1342.848 1342.848 0 0 0-100.96-115.296 1322.144 1322.144 0 0 0-116.32-101.824 169.184 169.184 0 0 0-236.576 0 1606.592 1606.592 0 0 0-125.056 111.008 1113.312 1113.312 0 0 0-91.008 105.44l-1.664 2.176a168.448 168.448 0 0 0 0 234.784l0.992 1.312a1270.624 1270.624 0 0 0 100.864 115.072 1408.992 1408.992 0 0 0 115.936 101.792 168.672 168.672 0 0 0 237.568-1.44l47.008-46.848 1.312-1.28c26.272-25.152 90.464-86.848 119.36-116.544l14.272-15.008c20.544-21.536 30.4-31.904 34.272-36.352a168.128 168.128 0 0 0 0.8-236z m-72 187.456l-1.92 2.048c-7.68 8.64-21.76 23.648-41.92 44.384-30.752 31.264-62.048 62.016-93.792 92.256-9.28 8.896-13.344 12.8-15.424 14.944l-42.944 43.2a95.84 95.84 0 0 1-67.936 28.448 94.688 94.688 0 0 1-67.808-28.32l-0.992-0.96a29.984 29.984 0 0 0-3.008-2.56A1169.408 1169.408 0 0 1 339.2 622.4a1198.432 1198.432 0 0 1-88.576-101.632 32.256 32.256 0 0 0-3.008-3.488l-0.608-0.64a98.688 98.688 0 0 1 0-138.24l0.672-0.64a27.776 27.776 0 0 0 3.072-3.68 1021.888 1021.888 0 0 1 80.096-93.248 1399.04 1399.04 0 0 1 108.48-96.256l1.28-0.64 2.624-2.56 0.96-0.896a95.84 95.84 0 0 1 67.904-28.416 94.688 94.688 0 0 1 67.84 28.32l1.088 1.056c0.896 0.864 1.856 1.664 2.88 2.432a1010.88 1010.88 0 0 1 189.12 189.824l0.768 1.504 3.232 3.168a99.008 99.008 0 0 1-0.256 138.752l-0.736 0.64z"  /></svg>