<svg class="svg-icon" style="width: 1em; height: 1em;vertical-align: middle;fill: currentColor;overflow: hidden;" viewBox="0 0 1024 1024" version="1.1" xmlns="http://www.w3.org/2000/svg"><path d="M1002.596528 465.881636l-91.485621-91.483574v-205.561749c0-40.397059-32.748868-73.144904-73.144904-73.144904-40.399105 0-73.145927 32.747845-73.145927 73.144904v59.270918L564.965306 28.253484c-28.565593-28.566616-74.880431-28.563546-103.445001 0L21.682835 468.091978c-28.564569 28.564569-28.564569 74.877361 0 103.44193 14.282285 14.285355 33.001625 21.424962 51.721989 21.424962 18.718317 0 37.438681-7.139607 51.720965-21.424962l388.117528-388.114458 385.906164 385.90514c28.566616 28.565593 74.881454 28.565593 103.446023 0s28.565593-74.878384 0.001024-103.442954z"  /><path d="M585.421196 669.251464c44.677549-25.498744 74.821079-73.557296 74.82108-128.682802 0-81.794911-66.308195-148.103106-148.103106-148.103106-81.795934 0-148.102083 66.308195-148.102083 148.103106 0 55.125505 30.142507 103.184057 74.821079 128.682802-111.596657 31.837102-193.301518 134.566812-193.301517 256.380158v72.571852h533.167088v-72.573899c0-121.812323-81.705883-224.541009-193.302541-256.378111z"  /></svg>